<svg width="7771" height="1280" viewBox="0 0 7771 1280" fill="none" xmlns="http://www.w3.org/2000/svg">
<rect width="7771" height="1280" fill="#0C002F"/>
<path d="M5194.73 279.648H5122.15V266.4H5281.99V279.648H5209.42V468H5194.73V279.648ZM5385.81 316.512C5404.63 316.512 5419.51 321.984 5430.45 332.928C5441.39 343.872 5446.87 359.616 5446.87 380.16V468H5432.47V381.312C5432.47 364.416 5428.15 351.552 5419.51 342.72C5411.06 333.888 5399.15 329.472 5383.79 329.472C5366.13 329.472 5352.21 334.752 5342.03 345.312C5331.86 355.872 5326.77 370.08 5326.77 387.936V468H5312.37V254.304H5326.77V349.056C5331.95 338.688 5339.63 330.72 5349.81 325.152C5359.99 319.392 5371.99 316.512 5385.81 316.512ZM5632 396.288H5502.69C5503.07 408 5506.05 418.464 5511.62 427.68C5517.18 436.704 5524.67 443.712 5534.08 448.704C5543.68 453.696 5554.43 456.192 5566.34 456.192C5576.13 456.192 5585.15 454.464 5593.41 451.008C5601.86 447.36 5608.86 442.08 5614.43 435.168L5622.78 444.672C5616.26 452.544 5608 458.592 5598.02 462.816C5588.22 467.04 5577.57 469.152 5566.05 469.152C5551.07 469.152 5537.73 465.888 5526.02 459.36C5514.3 452.832 5505.09 443.808 5498.37 432.288C5491.84 420.768 5488.58 407.616 5488.58 392.832C5488.58 378.24 5491.65 365.184 5497.79 353.664C5504.13 341.952 5512.77 332.832 5523.71 326.304C5534.66 319.776 5546.94 316.512 5560.58 316.512C5574.21 316.512 5586.4 319.776 5597.15 326.304C5608.1 332.64 5616.64 341.568 5622.78 353.088C5629.12 364.608 5632.29 377.664 5632.29 392.256L5632 396.288ZM5560.58 329.184C5550.02 329.184 5540.51 331.584 5532.06 336.384C5523.62 340.992 5516.8 347.616 5511.62 356.256C5506.62 364.704 5503.74 374.304 5502.98 385.056H5618.18C5617.6 374.304 5614.72 364.704 5609.54 356.256C5604.35 347.808 5597.54 341.184 5589.09 336.384C5580.64 331.584 5571.14 329.184 5560.58 329.184ZM5752.53 266.4H5767.22V468H5752.53V266.4ZM5889.31 225.504H5902.56L5807.52 496.8H5794.27L5889.31 225.504ZM6006.75 469.44C5986.97 469.44 5969.12 465.024 5953.18 456.192C5937.25 447.168 5924.67 434.88 5915.45 419.328C5906.43 403.776 5901.92 386.4 5901.92 367.2C5901.92 348 5906.43 330.624 5915.45 315.072C5924.67 299.52 5937.25 287.328 5953.18 278.496C5969.12 269.472 5986.97 264.96 6006.75 264.96C6026.53 264.96 6044.38 269.376 6060.32 278.208C6076.25 287.04 6088.73 299.232 6097.76 314.784C6106.97 330.336 6111.58 347.808 6111.58 367.2C6111.58 386.592 6106.97 404.064 6097.76 419.616C6088.73 435.168 6076.25 447.36 6060.32 456.192C6044.38 465.024 6026.53 469.44 6006.75 469.44ZM6006.75 455.904C6023.65 455.904 6038.91 452.064 6052.54 444.384C6066.17 436.704 6076.93 426.144 6084.8 412.704C6092.67 399.072 6096.61 383.904 6096.61 367.2C6096.61 350.496 6092.67 335.424 6084.8 321.984C6076.93 308.352 6066.17 297.696 6052.54 290.016C6038.91 282.336 6023.65 278.496 6006.75 278.496C5989.85 278.496 5974.49 282.336 5960.67 290.016C5947.04 297.696 5936.29 308.352 5928.41 321.984C5920.54 335.424 5916.61 350.496 5916.61 367.2C5916.61 383.904 5920.54 399.072 5928.41 412.704C5936.29 426.144 5947.04 436.704 5960.67 444.384C5974.49 452.064 5989.85 455.904 6006.75 455.904ZM5196.74 540.536C5177.93 540.536 5168.52 550.616 5168.52 570.776V592.664H5216.62V605.048H5168.81V743H5154.41V605.048H5126.76V592.664H5154.41V569.624C5154.41 556.952 5158.06 546.872 5165.35 539.384C5172.65 531.896 5182.92 528.152 5196.17 528.152C5201.93 528.152 5207.4 529.016 5212.58 530.744C5217.96 532.28 5222.38 534.68 5225.83 537.944L5220.07 548.888C5213.93 543.32 5206.15 540.536 5196.74 540.536ZM5245.99 529.304H5260.39V743H5245.99V529.304ZM5440.35 592.664L5363.17 763.448C5357.41 776.696 5350.69 786.104 5343.01 791.672C5335.52 797.24 5326.59 800.024 5316.23 800.024C5309.31 800.024 5302.79 798.872 5296.64 796.568C5290.69 794.264 5285.6 790.904 5281.38 786.488L5288.58 775.544C5296.26 783.416 5305.57 787.352 5316.51 787.352C5323.81 787.352 5330.05 785.336 5335.23 781.304C5340.42 777.272 5345.22 770.36 5349.63 760.568L5357.7 742.424L5290.02 592.664H5305.28L5365.47 727.16L5425.67 592.664H5440.35ZM5470.4 592.664H5484.8V743H5470.4V592.664ZM5477.6 556.088C5474.33 556.088 5471.55 555.032 5469.25 552.92C5466.94 550.616 5465.79 547.832 5465.79 544.568C5465.79 541.304 5466.94 538.52 5469.25 536.216C5471.55 533.912 5474.33 532.76 5477.6 532.76C5480.86 532.76 5483.65 533.912 5485.95 536.216C5488.25 538.328 5489.41 541.016 5489.41 544.28C5489.41 547.544 5488.25 550.328 5485.95 552.632C5483.65 554.936 5480.86 556.088 5477.6 556.088ZM5617.49 591.512C5636.31 591.512 5651.19 596.984 5662.13 607.928C5673.08 618.872 5678.55 634.616 5678.55 655.16V743H5664.15V656.312C5664.15 639.416 5659.83 626.552 5651.19 617.72C5642.74 608.888 5630.84 604.472 5615.48 604.472C5597.81 604.472 5583.89 609.752 5573.72 620.312C5563.54 630.872 5558.45 645.08 5558.45 662.936V743H5544.05V592.664H5557.88V625.208C5563.06 614.648 5570.74 606.392 5580.92 600.44C5591.28 594.488 5603.48 591.512 5617.49 591.512ZM5872.03 592.664V726.872C5872.03 751.832 5865.99 770.264 5853.89 782.168C5841.79 794.072 5823.55 800.024 5799.17 800.024C5785.35 800.024 5772.29 797.912 5760 793.688C5747.71 789.464 5737.83 783.608 5730.34 776.12L5738.11 765.176C5745.6 772.088 5754.63 777.464 5765.19 781.304C5775.75 785.144 5786.98 787.064 5798.88 787.064C5818.85 787.064 5833.63 782.264 5843.23 772.664C5852.83 763.256 5857.63 748.568 5857.63 728.6V703.256C5851.49 714.2 5842.95 722.648 5832 728.6C5821.06 734.552 5808.77 737.528 5795.14 737.528C5781.12 737.528 5768.35 734.456 5756.83 728.312C5745.51 721.976 5736.58 713.24 5730.05 702.104C5723.52 690.968 5720.26 678.392 5720.26 664.376C5720.26 650.36 5723.52 637.784 5730.05 626.648C5736.58 615.512 5745.51 606.872 5756.83 600.728C5768.35 594.584 5781.12 591.512 5795.14 591.512C5808.96 591.512 5821.44 594.584 5832.58 600.728C5843.71 606.872 5852.26 615.512 5858.21 626.648V592.664H5872.03ZM5796.29 724.568C5808 724.568 5818.56 722.072 5827.97 717.08C5837.38 711.896 5844.67 704.792 5849.86 695.768C5855.23 686.552 5857.92 676.088 5857.92 664.376C5857.92 652.664 5855.23 642.296 5849.86 633.272C5844.67 624.248 5837.38 617.24 5827.97 612.248C5818.56 607.064 5808 604.472 5796.29 604.472C5784.58 604.472 5774.02 607.064 5764.61 612.248C5755.39 617.24 5748.1 624.248 5742.72 633.272C5737.54 642.296 5734.95 652.664 5734.95 664.376C5734.95 676.088 5737.54 686.552 5742.72 695.768C5748.1 704.792 5755.39 711.896 5764.61 717.08C5774.02 722.072 5784.58 724.568 5796.29 724.568ZM6078.67 733.496C6075.02 736.952 6070.41 739.64 6064.84 741.56C6059.47 743.288 6053.8 744.152 6047.85 744.152C6034.8 744.152 6024.72 740.6 6017.61 733.496C6010.51 726.2 6006.96 716.12 6006.96 703.256V605.048H5979.31V592.664H6006.96V559.832H6021.36V592.664H6069.16V605.048H6021.36V701.816C6021.36 711.608 6023.66 719.096 6028.27 724.28C6033.07 729.272 6040.08 731.768 6049.29 731.768C6058.7 731.768 6066.48 728.984 6072.62 723.416L6078.67 733.496ZM6170.79 744.152C6156.59 744.152 6143.72 740.888 6132.2 734.36C6120.87 727.832 6111.95 718.808 6105.42 707.288C6098.89 695.576 6095.63 682.424 6095.63 667.832C6095.63 653.24 6098.89 640.184 6105.42 628.664C6111.95 616.952 6120.87 607.832 6132.2 601.304C6143.72 594.776 6156.59 591.512 6170.79 591.512C6185 591.512 6197.77 594.776 6209.1 601.304C6220.62 607.832 6229.64 616.952 6236.17 628.664C6242.7 640.184 6245.96 653.24 6245.96 667.832C6245.96 682.424 6242.7 695.576 6236.17 707.288C6229.64 718.808 6220.62 727.832 6209.1 734.36C6197.77 740.888 6185 744.152 6170.79 744.152ZM6170.79 731.192C6182.31 731.192 6192.59 728.504 6201.61 723.128C6210.83 717.752 6218.03 710.264 6223.21 700.664C6228.59 691.064 6231.27 680.12 6231.27 667.832C6231.27 655.544 6228.59 644.6 6223.21 635C6218.03 625.4 6210.83 617.912 6201.61 612.536C6192.59 607.16 6182.31 604.472 6170.79 604.472C6159.27 604.472 6148.91 607.16 6139.69 612.536C6130.67 617.912 6123.47 625.4 6118.09 635C6112.91 644.6 6110.31 655.544 6110.31 667.832C6110.31 680.12 6112.91 691.064 6118.09 700.664C6123.47 710.264 6130.67 717.752 6139.69 723.128C6148.91 728.504 6159.27 731.192 6170.79 731.192ZM5156.14 816.4H5170.82V1018H5156.14V816.4ZM5293.78 1019.15C5279.57 1019.15 5266.71 1015.89 5255.19 1009.36C5243.86 1002.83 5234.93 993.808 5228.4 982.288C5221.87 970.576 5218.61 957.424 5218.61 942.832C5218.61 928.24 5221.87 915.184 5228.4 903.664C5234.93 891.952 5243.86 882.832 5255.19 876.304C5266.71 869.776 5279.57 866.512 5293.78 866.512C5307.99 866.512 5320.75 869.776 5332.08 876.304C5343.6 882.832 5352.63 891.952 5359.15 903.664C5365.68 915.184 5368.95 928.24 5368.95 942.832C5368.95 957.424 5365.68 970.576 5359.15 982.288C5352.63 993.808 5343.6 1002.83 5332.08 1009.36C5320.75 1015.89 5307.99 1019.15 5293.78 1019.15ZM5293.78 1006.19C5305.3 1006.19 5315.57 1003.5 5324.59 998.128C5333.81 992.752 5341.01 985.264 5346.19 975.664C5351.57 966.064 5354.26 955.12 5354.26 942.832C5354.26 930.544 5351.57 919.6 5346.19 910C5341.01 900.4 5333.81 892.912 5324.59 887.536C5315.57 882.16 5305.3 879.472 5293.78 879.472C5282.26 879.472 5271.89 882.16 5262.67 887.536C5253.65 892.912 5246.45 900.4 5241.07 910C5235.89 919.6 5233.3 930.544 5233.3 942.832C5233.3 955.12 5235.89 966.064 5241.07 975.664C5246.45 985.264 5253.65 992.752 5262.67 998.128C5271.89 1003.5 5282.26 1006.19 5293.78 1006.19ZM5405.67 1019.15C5402.41 1019.15 5399.53 1018 5397.03 1015.7C5394.73 1013.2 5393.57 1010.22 5393.57 1006.77C5393.57 1003.31 5394.73 1000.43 5397.03 998.128C5399.53 995.824 5402.41 994.672 5405.67 994.672C5408.93 994.672 5411.72 995.824 5414.02 998.128C5416.52 1000.43 5417.77 1003.31 5417.77 1006.77C5417.77 1010.22 5416.52 1013.2 5414.02 1015.7C5411.72 1018 5408.93 1019.15 5405.67 1019.15Z" fill="white"/>
<line x1="1370" y1="269.5" x2="4889" y2="269.5" stroke="white" stroke-width="11"/>
<line x1="1370" y1="1012.5" x2="4889" y2="1012.5" stroke="white" stroke-width="11"/>
<line x1="1370" y1="634.5" x2="4889" y2="634.5" stroke="white" stroke-width="11"/>
</svg>
